<svg xmlns:dc="http://purl.org/dc/elements/1.1/" xmlns:cc="http://creativecommons.org/ns#" xmlns:rdf="http://www.w3.org/1999/02/22-rdf-syntax-ns#" xmlns:svg="http://www.w3.org/2000/svg" xmlns="http://www.w3.org/2000/svg" xmlns:xlink="http://www.w3.org/1999/xlink" id="svg773440" version="1.1" viewBox="251.35 337.86 521.3 92.29">   <metadata id="metadata773446">     <rdf:rdf>       <cc:work rdf:about="">         <dc:format>image/svg+xml</dc:format>         <dc:type rdf:resource="http://purl.org/dc/dcmitype/StillImage"/>       </cc:work>     </rdf:rdf>   </metadata>   <defs id="defs773444"/>   <linearGradient spreadMethod="pad" y2="30%" x2="-10%" y1="120%" x1="30%" id="3d_gradient2-logo-3614ebc8-d783-431d-8518-0294eba0eaf9">     <stop id="stop773421" stop-opacity="1" stop-color="#ffffff" offset="0%"/>     <stop id="stop773423" stop-opacity="1" stop-color="#000000" offset="100%"/>   </linearGradient>   <linearGradient gradientTransform="rotate(-30)" spreadMethod="pad" y2="30%" x2="-10%" y1="120%" x1="30%" id="3d_gradient3-logo-3614ebc8-d783-431d-8518-0294eba0eaf9">     <stop id="stop773426" stop-opacity="1" stop-color="#ffffff" offset="0%"/>     <stop id="stop773428" stop-opacity="1" stop-color="#cccccc" offset="50%"/>     <stop id="stop773430" stop-opacity="1" stop-color="#000000" offset="100%"/>   </linearGradient>   <g id="logo-group">     <image xlink:href="" id="container" x="272" y="144" width="480" height="480" style="display: none;" transform="translate(0 0)"/>     <g id="logo-center" transform="translate(0 0)">       <image xlink:href="" id="icon_container" style="display: none;" x="0" y="0"/>       <g id="slogan" style="font-style:normal;font-weight:400;font-size:32px;line-height:1;font-family:Montserrat;font-variant-ligatures:none;text-align:center;text-anchor:middle" transform="translate(0 0)"/>       <g id="title" style="font-style:oblique;font-weight:700;font-size:72px;line-height:1;font-family:Averta;font-variant-ligatures:none;text-align:center;text-anchor:middle" transform="translate(0 0)">         <path id="path773449" style="font-style:oblique;font-weight:700;font-size:72px;line-height:1;font-family:Averta;font-variant-ligatures:none;text-align:center;text-anchor:middle" d="M 365.82031,-51.12 359.55631,0 h 11.304 l 3.528,-28.584 0.144,-0.072 6.84,19.152 h 6.984 l 10.8,-18.504 0.144,0.072 -3.384,27.936 h 11.304 l 6.264,-51.12 h -11.304 l -15.408,27.792 h -0.216 l -9.432,-27.792 z" stroke-width="0" stroke-linejoin="miter" stroke-miterlimit="2" fill="#fff4e0" stroke="#fff4e0" transform="translate(0 325.40319999999997) translate(251.3496394500001 16.736000000000004) scale(1.7) translate(-359.55631 51.12)"/>         <path id="path773451" style="font-style:oblique;font-weight:700;font-size:72px;line-height:1;font-family:Averta;font-variant-ligatures:none;text-align:center;text-anchor:middle" d="m 426.35994,0.648 c 4.392,0 7.848,-2.304 10.44,-5.832 h 0.144 L 436.51194,0 h 10.584 l 4.32,-35.208 h -10.8 l -1.944,16.128 c -0.648,5.184 -4.896,10.08 -7.92,10.08 -2.52,0 -3.096,-1.872 -2.304,-7.56 l 2.664,-18.648 h -10.728 l -3.024,21.888 c -1.512,10.44 2.448,13.968 9,13.968 z" stroke-width="0" stroke-linejoin="miter" stroke-miterlimit="2" fill="#feebd6" stroke="#feebd6" transform="translate(0 325.40319999999997) translate(349.0694644500001 43.78640000000001) scale(1.7) translate(-417.03856 35.208)"/>         <path id="path773453" style="font-style:oblique;font-weight:700;font-size:72px;line-height:1;font-family:Averta;font-variant-ligatures:none;text-align:center;text-anchor:middle" d="m 466.68444,0.648 c 8.568,0 13.968,-4.536 13.968,-11.448 0,-5.544 -3.744,-8.064 -9.216,-10.8 -3.24,-1.584 -4.968,-2.736 -4.968,-3.888 0,-1.368 1.368,-2.16 2.808,-2.16 1.656,0.072 4.104,0.936 6.048,3.6 l 6.552,-6.192 c -3.168,-3.816 -7.92,-5.616 -12.672,-5.616 -7.272,0 -13.032,4.68 -13.032,11.736 0,5.184 3.24,8.064 8.568,10.728 4.032,2.088 5.472,2.664 5.472,3.96 0,1.224 -1.368,1.944 -3.24,1.944 -2.736,0 -5.904,-1.656 -7.992,-4.176 l -6.048,6.264 c 3.096,3.888 8.712,6.048 13.752,6.048 z" stroke-width="0" stroke-linejoin="miter" stroke-miterlimit="2" fill="#fee1cc" stroke="#fee1cc" transform="translate(0 325.40319999999997) translate(410.08906045000003 42.6848) scale(1.7) translate(-452.93244 35.856)"/>         <path id="path773455" style="font-style:oblique;font-weight:700;font-size:72px;line-height:1;font-family:Averta;font-variant-ligatures:none;text-align:center;text-anchor:middle" d="m 496.48681,-39.744 c 3.96,0 6.696,-2.736 6.696,-6.408 0,-3.528 -2.592,-6.12 -6.48,-6.12 -3.96,0 -6.696,2.664 -6.696,6.336 0,3.528 2.664,6.192 6.48,6.192 z m -6.696,4.536 -4.32,35.208 h 10.8 l 4.32,-35.208 z" stroke-width="0" stroke-linejoin="miter" stroke-miterlimit="2" fill="#fdd8c2" stroke="#fdd8c2" transform="translate(0 325.40319999999997) translate(465.40428944999996 14.777600000000007) scale(1.7) translate(-485.47081 52.272)"/>         <path id="path773457" style="font-style:oblique;font-weight:700;font-size:72px;line-height:1;font-family:Averta;font-variant-ligatures:none;text-align:center;text-anchor:middle" d="m 519.56844,0.648 c 6.768,0 11.592,-2.664 15.264,-7.704 l -8.352,-5.328 c -2.088,2.52 -4.104,3.384 -6.12,3.384 -2.952,0 -4.824,-2.304 -4.824,-6.12 0,-5.904 3.312,-11.16 8.136,-11.16 2.016,0 3.816,0.864 4.968,3.096 l 8.28,-6.192 c -2.88,-4.176 -7.272,-6.48 -13.536,-6.48 -12.168,0 -18.72,10.368 -18.72,21.168 0,10.008 5.76,15.336 14.904,15.336 z" stroke-width="0" stroke-linejoin="miter" stroke-miterlimit="2" fill="#fcceb8" stroke="#fcceb8" transform="translate(0 325.40319999999997) translate(498.03346045000006 42.6848) scale(1.7) translate(-504.66444 35.856)"/>         <path id="path773459" style="font-style:oblique;font-weight:700;font-size:72px;line-height:1;font-family:Averta;font-variant-ligatures:none;text-align:center;text-anchor:middle" d="m 554.16219,0.648 c 6.768,0 11.592,-2.664 15.264,-7.704 l -8.352,-5.328 c -2.088,2.52 -4.104,3.384 -6.12,3.384 -2.952,0 -4.824,-2.304 -4.824,-6.12 0,-5.904 3.312,-11.16 8.136,-11.16 2.016,0 3.816,0.864 4.968,3.096 l 8.28,-6.192 c -2.88,-4.176 -7.272,-6.48 -13.536,-6.48 -12.168,0 -18.72,10.368 -18.72,21.168 0,10.008 5.76,15.336 14.904,15.336 z" stroke-width="0" stroke-linejoin="miter" stroke-miterlimit="2" fill="#fbbfa8" stroke="#fbbfa8" transform="translate(0 325.40319999999997) translate(556.8428354500002 42.6848) scale(1.7) translate(-539.25819 35.856)"/>         <path id="path773461" style="font-style:oblique;font-weight:700;font-size:72px;line-height:1;font-family:Averta;font-variant-ligatures:none;text-align:center;text-anchor:middle" d="m 585.22794,0.648 c 3.96,0 7.488,-2.16 10.08,-5.904 l 0.216,0.072 -0.648,5.184 h 10.872 l 4.32,-35.208 h -10.872 l -0.288,2.448 h -0.216 c -1.872,-1.944 -4.608,-3.096 -8.28,-3.096 -9.216,0 -16.632,9.576 -16.632,22.104 0,8.136 3.888,14.4 11.448,14.4 z m 3.456,-9.576 c -2.448,0 -4.032,-2.232 -4.032,-5.616 0,-5.256 2.88,-11.664 7.632,-11.664 2.232,0 4.248,0.864 5.832,2.52 l -0.144,1.008 c -1.224,8.856 -5.544,13.752 -9.288,13.752 z" stroke-width="0" stroke-linejoin="miter" stroke-miterlimit="2" fill="#f9ab93" stroke="#f9ab93" transform="translate(0 325.40319999999997) translate(615.5298104500002 42.6848) scale(1.7) translate(-573.77994 35.856)"/>         <path id="path773463" style="font-style:oblique;font-weight:700;font-size:72px;line-height:1;font-family:Averta;font-variant-ligatures:none;text-align:center;text-anchor:middle" d="M 616.96756,-26.496 613.72756,0 h 10.872 l 3.168,-26.496 h 5.688 l 1.08,-8.712 h -5.616 l 0.432,-3.6 c 0.576,-4.608 1.584,-5.544 3.528,-5.544 1.296,0 2.448,0.432 3.672,1.296 l 2.664,-7.92 c -2.304,-1.8 -5.184,-2.664 -8.352,-2.664 -6.984,0 -11.088,4.248 -12.096,12.528 l -0.72,5.904 h -2.952 l -1.08,8.712 z" stroke-width="0" stroke-linejoin="miter" stroke-miterlimit="2" fill="#f7957b" stroke="#f7957b" transform="translate(0 325.40319999999997) translate(683.4407644500003 12.451999999999998) scale(1.7) translate(-613.72756 53.64)"/>         <path id="path773465" style="font-style:oblique;font-weight:700;font-size:72px;line-height:1;font-family:Averta;font-variant-ligatures:none;text-align:center;text-anchor:middle" d="m 666.20319,-26.136 c 0.072,-6.624 -6.336,-9.72 -12.024,-9.72 -11.88,0 -19.296,9.792 -19.296,21.744 -0.072,9.144 5.832,14.76 14.688,14.76 6.912,0 11.592,-2.592 15.336,-7.704 l -8.064,-4.752 c -1.944,2.592 -4.032,3.528 -6.408,3.528 -2.088,0 -4.392,-1.296 -5.04,-4.464 10.368,-1.08 20.664,-4.464 20.808,-13.392 z m -10.368,1.512 c -0.072,3.456 -4.824,4.824 -10.08,5.4 1.224,-4.896 4.392,-7.632 7.488,-7.632 1.656,0 2.664,0.792 2.592,2.232 z" stroke-width="0" stroke-linejoin="miter" stroke-miterlimit="2" fill="#f57d62" stroke="#f57d62" transform="translate(0 325.40319999999997) translate(719.4042304500001 42.6848) scale(1.7) translate(-634.88254 35.856)"/>       </g>       <image xlink:href="" id="icon" style="display: none;" x="0" y="0"/>     </g>   </g> </svg>